#!OML:ASF H:\Terrain\Patient Classification 1\Terrain2\Thursday\justin.ASF
:FULLY-SPECIFIED
:DEGREES
157
root 8.4688 17.8436 -14.5652 -6.17116 -1.42243 -7.81188
lowerback 14.2319 2.4268 9.72646
upperback 4.26602 4.73754 4.18636
thorax -2.99568 2.33327 -1.80696
lowerneck -13.1738 -2.43975 -9.09239
upperneck 32.1702 -1.58873 1.94279
head 13.0867 -1.50925 2.11061
rclavicle -1.2921e-015 1.43125e-014
rhumerus -27.4715 -8.23583 -75.6526
rradius 35.9791
rwrist -11.3362
rhand -18.9948 12.0646
rfingers 7.12502
rthumb 7.31012 -17.7891
lclavicle -1.2921e-015 1.43125e-014
lhumerus -38.361 8.07545 83.8699
lradius 28.51
lwrist -0.875456
lhand -13.9007 23.0709
lfingers 7.12502
lthumb 12.2249 52.6936
rfemur 8.37995 -3.70327 33.4013
rtibia 11.2059
rfoot -6.26388 2.45315
rtoes 8.22802
lfemur -81.516 14.2375 -16.5596
ltibia 110.004
lfoot -18.5592 -18.5088
ltoes -12.4338
158
root 8.47309 17.8645 -14.4737 -6.32332 -1.66145 -7.45671
lowerback 14.5046 2.30436 9.09139
upperback 4.80936 4.46759 4.08805
thorax -2.6352 2.2282 -1.51989
lowerneck -15.123 -2.2687 -8.69659
upperneck 32.5967 -1.13512 1.61838
head 13.6559 -1.31739 1.98278
rclavicle -4.99943e-014 -6.20208e-014
rhumerus -25.7763 -7.32444 -76.3156
rradius 35.8352
rwrist -11.4164
rhand -19.1164 11.9324
rfingers 7.12502
rthumb 7.19281 -17.9253
lclavicle -4.99943e-014 -6.20208e-014
lhumerus -37.6034 9.11772 83.5835
lradius 28.5328
lwrist -0.573763
lhand -14.2443 22.846
lfingers 7.12502
lthumb 11.8936 52.4882
rfemur 8.94093 -3.46339 33.0294
rtibia 11.1327
rfoot -6.06083 2.44107
rtoes 7.96567
lfemur -81.87 13.8728 -16.8778
ltibia 108.412
lfoot -17.9865 -18.4479
ltoes -10.6934
159
root 8.47779 17.8735 -14.3828 -6.4356 -1.93193 -7.33635
lowerback 14.7653 2.33296 8.94559
upperback 5.03119 4.4916 3.98712
thorax -2.54095 2.24869 -1.55598
lowerneck -15.7454 -2.2045 -8.51676
upperneck 32.7269 -1.00425 1.54385
head 13.838 -1.25247 1.94315
rclavicle -9.14409e-015 -3.18055e-015
rhumerus -24.9245 -7.1182 -76.6361
rradius 35.8718
rwrist -11.5195
rhand -18.8135 12.0771
rfingers 7.12502
rthumb 7.48514 -17.7704
lclavicle -9.14409e-015 -3.18055e-015
lhumerus -37.4379 9.19484 83.4822
lradius 28.7019
lwrist -0.471835
lhand -13.9659 23.3684
lfingers 7.12502
lthumb 12.162 52.9948
rfemur 9.40768 -3.06522 32.9374
rtibia 11.1568
rfoot -6.01382 2.28845
rtoes 7.98158
lfemur -82.3626 13.6647 -17.0759
ltibia 106.852
lfoot -18.0012 -17.8489
ltoes -11.8929
160
root 8.4812 17.8749 -14.2892 -6.6031 -2.09229 -7.19754
lowerback 14.9778 2.40442 8.81274
upperback 5.15655 4.57865 3.93615
thorax -2.52104 2.29488 -1.55724
lowerneck -15.824 -2.18809 -8.56927
upperneck 32.815 -0.982925 1.63127
head 13.8933 -1.23982 1.99211
rclavicle -5.40694e-014 -2.46493e-014
rhumerus -24.4919 -7.12427 -76.6917
rradius 36.1322
rwrist -11.6783
rhand -18.7426 12.1952
rfingers 7.12502
rthumb 7.55361 -17.6499
lclavicle -5.40694e-014 -2.46493e-014
lhumerus -37.4178 9.31866 83.415
lradius 28.7295
lwrist -0.590988
lhand -13.5935 23.6366
lfingers 7.12502
lthumb 12.5211 53.2415
rfemur 9.85903 -2.59602 32.8261
rtibia 11.253
rfoot -5.99915 2.04653
rtoes 8.38454
lfemur -82.6926 13.3166 -17.2842
ltibia 105.239
lfoot -18.1022 -17.0502
ltoes -15.6056
161
root 8.4882 17.8792 -14.1917 -6.75102 -2.18167 -6.92807
lowerback 15.0012 2.41889 8.5055
upperback 5.35505 4.53857 3.9099
thorax -2.35001 2.28482 -1.40439
lowerneck -15.956 -2.14281 -8.79901
upperneck 32.8811 -0.881551 1.78528
head 13.9486 -1.20554 2.11145
rclavicle -3.26007e-014 -2.70347e-014
rhumerus -24.121 -6.75295 -76.6933
rradius 36.508
rwrist -11.8694
rhand -18.9795 12.0728
rfingers 7.12502
rthumb 7.32495 -17.7805
lclavicle -3.26007e-014 -2.70347e-014
lhumerus -37.2801 10.1095 83.2247
lradius 28.5915
lwrist -0.94093
lhand -13.3928 23.3695
lfingers 7.12502
lthumb 12.7145 52.9624
rfemur 10.3511 -2.53085 32.4645
rtibia 11.3254
rfoot -6.04 2.20301
rtoes 7.77301
lfemur -82.7355 12.8385 -17.4566
ltibia 103.542
lfoot -17.8723 -16.5695
ltoes -17.789
162
root 8.49621 17.8881 -14.1003 -6.80051 -2.3676 -6.82375
lowerback 15.0446 2.47645 8.48232
upperback 5.49091 4.60011 3.8188
thorax -2.21762 2.3239 -1.49337
lowerneck -15.9925 -2.15584 -8.83576
upperneck 32.8872 -0.916458 1.87644
head 13.9617 -1.21292 2.14906
rclavicle -5.30755e-014 -5.24792e-014
rhumerus -23.8984 -6.58308 -76.7988
rradius 36.922
rwrist -11.9884
rhand -19.029 11.6689
rfingers 7.12502
rthumb 7.27715 -18.1859
lclavicle -5.30755e-014 -5.24792e-014
lhumerus -37.1133 10.4123 83.0753
lradius 28.5573
lwrist -1.11947
lhand -13.2089 23.4586
lfingers 7.12502
lthumb 12.8918 53.0404
rfemur 10.7585 -2.37747 32.3225
rtibia 11.349
rfoot -5.916 2.36623
rtoes 6.22497
lfemur -82.8235 12.5487 -17.412
ltibia 101.838
lfoot -17.4336 -16.2528
ltoes -18.6859
